<mxfile host="Electron" modified="2023-09-16T10:48:23.373Z" agent="Mozilla/5.0 (Windows NT 10.0; Win64; x64) AppleWebKit/537.36 (KHTML, like Gecko) draw.io/21.6.8 Chrome/114.0.5735.289 Electron/25.5.0 Safari/537.36" etag="RI5NKWzzky54ptcfpXQi" version="21.6.8" type="device">
  <diagram name="第 1 页" id="N4BWbGarJ0hV8G-QkOxH">
    <mxGraphModel dx="1480" dy="877" grid="1" gridSize="10" guides="1" tooltips="1" connect="1" arrows="1" fold="1" page="1" pageScale="1" pageWidth="4681" pageHeight="3300" math="0" shadow="0">
      <root>
        <mxCell id="0" />
        <mxCell id="1" parent="0" />
        <mxCell id="EfXdgfZb3HXHeS3GN5Iq-5" value="" style="edgeStyle=orthogonalEdgeStyle;rounded=0;sketch=1;hachureGap=4;jiggle=2;curveFitting=1;orthogonalLoop=1;jettySize=auto;html=1;fontFamily=Architects Daughter;fontSource=https%3A%2F%2Ffonts.googleapis.com%2Fcss%3Ffamily%3DArchitects%2BDaughter;fontSize=16;" edge="1" parent="1" source="EfXdgfZb3HXHeS3GN5Iq-1" target="EfXdgfZb3HXHeS3GN5Iq-4">
          <mxGeometry relative="1" as="geometry" />
        </mxCell>
        <mxCell id="EfXdgfZb3HXHeS3GN5Iq-1" value="开始" style="strokeWidth=2;html=1;shape=mxgraph.flowchart.terminator;whiteSpace=wrap;sketch=1;hachureGap=4;jiggle=2;curveFitting=1;fontFamily=Architects Daughter;fontSource=https%3A%2F%2Ffonts.googleapis.com%2Fcss%3Ffamily%3DArchitects%2BDaughter;fontSize=20;" vertex="1" parent="1">
          <mxGeometry x="220" y="90" width="100" height="60" as="geometry" />
        </mxCell>
        <mxCell id="EfXdgfZb3HXHeS3GN5Iq-7" value="" style="edgeStyle=orthogonalEdgeStyle;rounded=0;sketch=1;hachureGap=4;jiggle=2;curveFitting=1;orthogonalLoop=1;jettySize=auto;html=1;fontFamily=Architects Daughter;fontSource=https%3A%2F%2Ffonts.googleapis.com%2Fcss%3Ffamily%3DArchitects%2BDaughter;fontSize=16;" edge="1" parent="1" source="EfXdgfZb3HXHeS3GN5Iq-4" target="EfXdgfZb3HXHeS3GN5Iq-6">
          <mxGeometry relative="1" as="geometry" />
        </mxCell>
        <mxCell id="EfXdgfZb3HXHeS3GN5Iq-4" value="分配事件组空间" style="whiteSpace=wrap;html=1;fontSize=20;fontFamily=Architects Daughter;strokeWidth=2;sketch=1;hachureGap=4;jiggle=2;curveFitting=1;fontSource=https%3A%2F%2Ffonts.googleapis.com%2Fcss%3Ffamily%3DArchitects%2BDaughter;" vertex="1" parent="1">
          <mxGeometry x="170" y="210" width="200" height="60" as="geometry" />
        </mxCell>
        <mxCell id="EfXdgfZb3HXHeS3GN5Iq-9" value="" style="edgeStyle=orthogonalEdgeStyle;rounded=0;sketch=1;hachureGap=4;jiggle=2;curveFitting=1;orthogonalLoop=1;jettySize=auto;html=1;fontFamily=Architects Daughter;fontSource=https%3A%2F%2Ffonts.googleapis.com%2Fcss%3Ffamily%3DArchitects%2BDaughter;fontSize=16;" edge="1" parent="1" source="EfXdgfZb3HXHeS3GN5Iq-6" target="EfXdgfZb3HXHeS3GN5Iq-8">
          <mxGeometry relative="1" as="geometry" />
        </mxCell>
        <mxCell id="EfXdgfZb3HXHeS3GN5Iq-6" value="初始化uxEventBits" style="whiteSpace=wrap;html=1;fontSize=20;fontFamily=Architects Daughter;strokeWidth=2;sketch=1;hachureGap=4;jiggle=2;curveFitting=1;fontSource=https%3A%2F%2Ffonts.googleapis.com%2Fcss%3Ffamily%3DArchitects%2BDaughter;" vertex="1" parent="1">
          <mxGeometry x="175" y="330" width="190" height="60" as="geometry" />
        </mxCell>
        <mxCell id="EfXdgfZb3HXHeS3GN5Iq-12" value="" style="edgeStyle=orthogonalEdgeStyle;rounded=0;sketch=1;hachureGap=4;jiggle=2;curveFitting=1;orthogonalLoop=1;jettySize=auto;html=1;fontFamily=Architects Daughter;fontSource=https%3A%2F%2Ffonts.googleapis.com%2Fcss%3Ffamily%3DArchitects%2BDaughter;fontSize=16;" edge="1" parent="1" source="EfXdgfZb3HXHeS3GN5Iq-8" target="EfXdgfZb3HXHeS3GN5Iq-11">
          <mxGeometry relative="1" as="geometry" />
        </mxCell>
        <mxCell id="EfXdgfZb3HXHeS3GN5Iq-8" value="将链表xTasksWaitingForBits进行初始化" style="whiteSpace=wrap;html=1;fontSize=20;fontFamily=Architects Daughter;strokeWidth=2;sketch=1;hachureGap=4;jiggle=2;curveFitting=1;fontSource=https%3A%2F%2Ffonts.googleapis.com%2Fcss%3Ffamily%3DArchitects%2BDaughter;" vertex="1" parent="1">
          <mxGeometry x="60" y="450" width="420" height="60" as="geometry" />
        </mxCell>
        <mxCell id="EfXdgfZb3HXHeS3GN5Iq-10" value="结束" style="strokeWidth=2;html=1;shape=mxgraph.flowchart.terminator;whiteSpace=wrap;sketch=1;hachureGap=4;jiggle=2;curveFitting=1;fontFamily=Architects Daughter;fontSource=https%3A%2F%2Ffonts.googleapis.com%2Fcss%3Ffamily%3DArchitects%2BDaughter;fontSize=20;" vertex="1" parent="1">
          <mxGeometry x="220" y="710" width="100" height="60" as="geometry" />
        </mxCell>
        <mxCell id="EfXdgfZb3HXHeS3GN5Iq-13" value="" style="edgeStyle=orthogonalEdgeStyle;rounded=0;sketch=1;hachureGap=4;jiggle=2;curveFitting=1;orthogonalLoop=1;jettySize=auto;html=1;fontFamily=Architects Daughter;fontSource=https%3A%2F%2Ffonts.googleapis.com%2Fcss%3Ffamily%3DArchitects%2BDaughter;fontSize=16;" edge="1" parent="1" source="EfXdgfZb3HXHeS3GN5Iq-11" target="EfXdgfZb3HXHeS3GN5Iq-10">
          <mxGeometry relative="1" as="geometry" />
        </mxCell>
        <mxCell id="EfXdgfZb3HXHeS3GN5Iq-11" value="返回事件组句柄" style="whiteSpace=wrap;html=1;fontSize=20;fontFamily=Architects Daughter;strokeWidth=2;sketch=1;hachureGap=4;jiggle=2;curveFitting=1;fontSource=https%3A%2F%2Ffonts.googleapis.com%2Fcss%3Ffamily%3DArchitects%2BDaughter;" vertex="1" parent="1">
          <mxGeometry x="180" y="580" width="180" height="60" as="geometry" />
        </mxCell>
      </root>
    </mxGraphModel>
  </diagram>
</mxfile>
